<?xml version="1.0" standalone="no"?>
<!DOCTYPE svg PUBLIC "-//W3C//DTD SVG 20010904//EN"
 "http://www.w3.org/TR/2001/REC-SVG-20010904/DTD/svg10.dtd">
<svg version="1.0" xmlns="http://www.w3.org/2000/svg"
 width="673.000000pt" height="563.000000pt" viewBox="0 0 673.000000 563.000000"
 preserveAspectRatio="xMidYMid meet">
<metadata>
Created by potrace 1.16, written by Peter Selinger 2001-2019
</metadata>
<g transform="translate(0.000000,563.000000) scale(0.100000,-0.100000)"
fill="#000000" stroke="none">
<path d="M0 2815 l0 -2815 3365 0 3365 0 0 2815 0 2815 -3365 0 -3365 0 0
-2815z m6130 2094 c12 -7 10 -9 -7 -7 -12 2 -23 -1 -24 -5 -3 -12 65 -147 74
-147 4 0 7 16 7 36 0 19 5 44 10 55 9 16 7 19 -12 19 -18 0 -20 2 -8 10 13 8
12 11 -5 24 -19 14 -18 15 10 7 17 -4 34 -17 40 -29 5 -12 13 -22 17 -22 5 0
8 -4 8 -10 0 -5 -6 -7 -13 -4 -13 5 -43 -76 -39 -109 1 -9 22 -60 47 -112 25
-53 45 -98 45 -100 0 -14 -16 -2 -25 18 -22 46 -70 132 -82 145 -7 7 -34 56
-60 108 -25 52 -50 91 -54 87 -3 -5 -9 -20 -13 -35 -5 -21 -3 -28 9 -28 19 0
20 -29 0 -36 -24 -9 -57 -113 -59 -184 -1 -55 3 -70 23 -97 14 -18 22 -36 18
-39 -3 -4 -14 8 -24 25 -36 64 -38 66 -66 54 -22 -10 -25 -10 -20 2 3 10 -1
15 -13 15 -14 0 -16 2 -6 9 7 4 23 6 36 4 21 -4 24 1 39 71 20 89 21 116 6
116 -5 0 -7 5 -4 10 4 6 11 8 16 5 5 -4 9 2 9 11 0 9 7 42 16 73 9 31 18 62
20 69 4 14 54 9 84 -9z m-1275 -584 c55 -20 133 -49 174 -64 42 -15 79 -35 85
-46 12 -22 236 -357 281 -422 17 -23 35 -42 42 -43 7 0 89 39 183 86 l170 85
53 -10 c28 -5 73 -12 99 -16 43 -6 51 -11 80 -53 17 -26 53 -72 80 -101 46
-53 59 -83 39 -95 -5 -4 -56 3 -113 14 -57 11 -110 20 -118 20 -14 0 -46 -63
-171 -337 -23 -51 -46 -93 -51 -93 -5 0 -18 -20 -29 -44 -21 -48 -33 -56 -87
-56 -34 0 -148 -49 -297 -126 -118 -61 -144 -77 -139 -86 3 -4 100 -8 215 -8
l210 0 -3 -92 -3 -93 -221 -6 c-121 -3 -226 -9 -232 -13 -18 -11 -16 -187 2
-212 14 -18 29 -19 274 -19 143 0 264 -3 268 -7 13 -14 17 -165 4 -173 -15 -9
-750 -8 -759 1 -3 3 -5 83 -4 177 2 95 -1 190 -5 212 l-7 40 -32 -35 c-17 -19
-55 -64 -84 -100 -28 -36 -95 -110 -148 -166 -107 -113 -170 -155 -438 -288
l-152 -76 -108 1 -108 2 80 11 c91 14 98 7 -70 76 l-100 42 -115 -47 c-129
-52 -147 -61 -138 -70 3 -4 71 -9 149 -11 79 -3 145 -7 148 -9 2 -3 -16 -5
-42 -5 -25 0 -99 -7 -163 -15 -148 -20 -207 -20 -264 -1 l-45 15 45 -7 c62
-10 211 -5 222 6 11 11 -279 27 -309 18 -10 -3 -59 3 -108 14 -50 11 -111 25
-137 31 -27 6 -48 13 -48 15 0 6 70 -4 152 -22 37 -8 116 -17 175 -20 124 -7
125 -2 18 59 -33 19 -91 53 -129 76 l-68 43 -142 -8 c-77 -5 -145 -8 -151 -7
-98 15 -92 20 25 19 110 -1 230 10 230 20 0 2 -30 33 -67 69 -38 35 -65 65
-61 65 4 0 13 -6 20 -13 29 -29 143 -117 151 -117 5 0 15 -7 23 -15 9 -8 30
-15 47 -16 28 -1 29 -2 9 -8 -22 -6 -21 -8 23 -39 25 -17 48 -32 51 -32 3 0
31 -16 62 -37 101 -64 106 -65 192 -33 42 16 108 42 146 60 l69 32 -45 24
c-45 25 -38 25 35 -3 39 -15 42 -15 93 11 29 15 50 31 47 36 -3 6 5 10 20 10
27 0 140 56 238 118 53 34 58 39 52 66 -9 47 -53 136 -67 136 -7 0 -31 -11
-53 -25 -144 -86 -233 -131 -409 -206 l-80 -33 75 -17 c41 -9 64 -17 52 -18
-12 -1 -44 4 -71 10 -28 7 -58 8 -68 4 -11 -4 -28 -7 -39 -6 -22 2 -177 -23
-210 -34 -14 -5 -16 -4 -7 3 19 13 -7 22 -69 22 -27 0 -49 4 -49 9 0 5 -15 14
-32 22 -41 16 -96 51 -168 105 -30 22 -62 44 -70 47 -12 4 -11 6 3 6 9 1 17 4
17 7 0 13 -61 92 -75 97 -8 4 -15 12 -15 19 0 9 3 9 10 -2 15 -24 24 -3 11 27
-6 15 -17 69 -24 119 -12 81 -11 98 5 162 9 40 27 93 38 119 11 25 18 48 16
50 -2 2 -16 -10 -32 -27 -16 -17 -40 -38 -54 -47 -14 -8 36 46 111 121 120
120 134 138 118 147 -49 26 -328 40 -330 17 -1 -7 -3 -76 -5 -153 -4 -164 1
-209 22 -201 19 7 18 -14 -2 -29 -13 -9 -17 -38 -19 -166 -2 -86 0 -161 4
-167 4 -7 25 -21 47 -32 35 -19 27 -20 -25 -4 -26 8 -31 -21 -27 -150 l4 -108
-34 5 c-18 3 -36 2 -39 -2 -5 -10 -113 -6 -123 4 -3 3 -4 45 -2 93 8 176 3
552 -8 552 -5 0 -29 -38 -55 -85 -26 -46 -65 -111 -86 -142 -21 -32 -48 -78
-61 -102 l-22 -44 22 6 c17 4 19 3 9 -9 -6 -8 -16 -14 -21 -14 -5 0 -19 -11
-31 -24 -17 -19 -35 -25 -79 -28 -31 -3 -56 -2 -55 1 2 7 -58 108 -128 216
-24 39 -54 87 -65 107 -11 21 -33 58 -49 83 l-29 46 -8 -98 -8 -98 -12 70 c-6
39 -13 75 -15 80 -2 6 0 34 4 63 9 61 25 67 51 20 9 -18 37 -64 62 -103 76
-120 124 -203 124 -217 0 -8 19 -43 42 -78 39 -58 47 -65 80 -68 36 -3 38 -1
81 65 96 147 229 378 232 401 1 13 10 31 19 40 16 16 18 16 32 -2 8 -11 14
-28 14 -38 0 -10 5 -18 10 -18 15 0 12 -26 -4 -40 -13 -10 -15 -61 -14 -306 0
-170 5 -297 10 -300 11 -7 108 -7 115 0 11 10 15 174 5 224 -6 33 -6 55 0 58
6 4 7 22 3 42 -4 20 -7 175 -7 344 l1 308 -62 0 c-34 0 -67 -4 -72 -8 -13 -9
-105 -165 -105 -178 0 -5 -16 -34 -35 -63 -20 -30 -52 -81 -71 -115 -68 -116
-129 -205 -141 -206 -7 0 -31 33 -55 73 -23 39 -66 107 -95 149 -29 43 -53 81
-53 85 0 9 -82 136 -96 148 -6 6 -15 24 -19 40 -13 57 -41 75 -114 75 l-66 0
0 -444 c0 -290 -4 -448 -10 -455 -7 -7 -10 86 -10 294 0 321 -3 345 -42 314
-16 -13 -17 -12 -5 3 8 9 11 21 8 27 -3 5 3 7 14 4 20 -5 20 -1 18 137 l-3
142 75 2 c57 1 74 4 72 14 -4 19 48 -22 71 -56 10 -15 23 -38 28 -51 12 -30
107 -190 125 -211 8 -9 30 -47 50 -85 20 -39 49 -87 65 -107 16 -20 29 -42 29
-48 0 -7 6 -10 13 -8 16 6 59 97 53 113 -3 8 2 11 12 9 12 -3 26 10 45 43 15
27 63 109 107 183 81 136 94 165 63 138 -66 -56 -29 -14 72 84 143 138 184
173 192 164 4 -3 4 -7 2 -9 -18 -12 -179 -160 -177 -163 2 -1 51 13 108 32
132 43 290 87 296 81 2 -2 -25 -12 -61 -22 -35 -9 -115 -35 -177 -56 l-113
-39 115 -2 c63 -2 143 -3 177 -3 33 0 59 -3 57 -6 -5 -9 124 -31 136 -24 5 3
11 1 14 -4 4 -5 33 0 69 11 43 14 94 21 168 23 59 2 117 5 130 9 13 3 18 3 12
0 -24 -11 -13 -20 37 -33 108 -28 238 -142 290 -254 27 -57 60 -189 60 -237 0
-11 5 -20 10 -20 6 0 10 -7 10 -15 0 -8 4 -15 9 -15 11 0 161 -98 161 -106 0
-7 -37 13 -113 63 -37 25 -71 42 -74 39 -4 -4 -16 -40 -28 -80 -26 -88 -74
-174 -133 -234 -50 -51 -43 -50 86 9 131 60 276 150 293 180 6 13 -2 44 -32
116 -22 54 -56 136 -74 183 -63 162 -84 205 -119 245 -34 39 -41 60 -11 35 19
-15 19 -8 1 52 -8 25 -12 49 -9 52 4 3 29 6 57 6 29 0 46 4 40 9 -19 18 -179
82 -206 83 -15 1 -28 5 -28 9 0 10 -41 28 -152 70 -43 16 -78 25 -78 21 0 -12
138 -112 155 -112 8 0 15 -7 15 -15 0 -8 3 -15 8 -15 4 0 36 -28 72 -61 l65
-61 -89 66 c-66 49 -95 65 -110 60 -17 -4 -18 -3 -6 5 13 9 10 15 -15 36 -43
36 -171 115 -185 115 -13 0 -121 -84 -187 -145 -21 -20 -51 -45 -68 -57 -30
-21 90 101 135 136 17 14 20 21 11 24 -11 4 -11 6 0 13 39 24 -18 18 -152 -15
-82 -21 -152 -36 -154 -34 -5 4 256 71 328 84 45 8 55 21 31 40 -17 12 -15 13
14 3 38 -13 60 -9 144 30 35 16 71 31 81 32 30 6 24 23 -13 37 -33 12 -33 12
-5 8 17 -3 39 -8 50 -11 12 -4 1 11 -25 34 l-45 41 61 -40 61 -39 98 12 99 12
-75 23 c-118 35 -263 71 -269 66 -2 -3 2 -9 10 -14 27 -17 -1 -10 -31 7 -27
16 -33 16 -124 -6 -53 -13 -95 -25 -92 -27 2 -2 21 -8 43 -14 38 -9 37 -10
-17 -6 -30 2 -77 0 -104 -5 -33 -6 -51 -6 -53 1 -2 5 -31 10 -63 10 -37 0 -58
-4 -54 -10 4 -6 -6 -7 -25 -4 -18 4 -30 2 -30 -4 0 -5 -7 -12 -14 -15 -11 -4
-13 -1 -9 10 5 11 1 14 -13 10 -32 -9 -109 -20 -104 -14 8 8 255 57 286 56 25
0 26 -2 9 -9 -14 -6 -4 -9 36 -9 58 -1 162 26 154 39 -5 9 104 30 153 30 17 0
51 -6 74 -14 24 -8 120 -33 213 -56 94 -22 184 -45 200 -49 54 -16 330 -145
350 -164 11 -10 74 -62 140 -115 66 -53 128 -102 137 -110 14 -12 19 -11 37 7
16 16 34 21 79 21 56 0 60 2 111 50 l54 51 -34 37 c-19 20 -42 46 -50 56 -13
18 -13 19 9 7 26 -14 31 -27 -52 144 -96 198 -134 280 -143 305 -19 57 -88
173 -106 178 -14 4 -16 7 -5 13 10 6 -6 46 -70 174 -45 91 -80 170 -77 174 2
5 109 -33 237 -84 128 -50 278 -109 333 -130z m1574 -605 c1 -289 4 -689 7
-890 7 -386 -4 -925 -17 -835 -4 28 -8 462 -9 965 -1 574 -5 908 -11 895 -6
-15 -8 -9 -3 20 3 22 8 121 11 219 10 345 22 150 22 -374z m-4642 -545 c34
-50 69 -101 77 -115 8 -14 41 -68 74 -120 34 -52 81 -129 106 -170 25 -41 56
-87 68 -102 l23 -27 41 62 c23 34 55 87 71 117 31 58 62 108 168 270 34 52 74
114 89 138 26 41 48 53 62 31 3 -6 6 -205 6 -442 0 -353 -3 -432 -14 -432 -11
0 -13 76 -13 412 0 227 -3 414 -6 415 -13 6 -79 -89 -205 -297 -26 -44 -52
-84 -56 -90 -18 -22 -108 -172 -119 -197 -15 -37 -35 -35 -55 5 -9 17 -29 48
-43 67 -15 19 -32 48 -39 63 -7 16 -36 65 -66 110 -29 45 -61 98 -71 117 -10
19 -39 62 -65 97 -27 34 -56 76 -66 92 -10 17 -21 31 -25 31 -12 0 -19 -228
-17 -522 2 -193 -1 -299 -7 -300 -10 -3 -24 672 -17 815 5 91 19 87 99 -28z
m4475 -287 c-2 -10 -8 -15 -13 -12 -5 3 -9 -6 -9 -20 0 -14 4 -26 9 -26 5 0 9
-11 9 -24 0 -14 7 -32 16 -41 18 -18 21 -30 6 -20 -5 3 -12 -12 -16 -35 -4
-25 -12 -40 -21 -40 -11 0 -13 -8 -9 -27 3 -16 7 -59 10 -98 l5 -70 -13 75
c-8 41 -14 71 -15 65 -1 -5 -6 -3 -11 5 -15 24 -12 212 4 235 7 11 17 45 20
75 12 90 20 101 26 35 4 -33 4 -68 2 -77z"/>
<path d="M4396 4467 c3 -6 27 -30 53 -52 26 -22 73 -62 106 -90 32 -27 93 -80
134 -117 42 -37 82 -68 89 -68 6 0 12 -4 12 -8 0 -4 21 -24 48 -44 26 -20 67
-55 91 -77 25 -23 48 -38 52 -34 11 12 50 132 55 171 3 28 1 33 -12 28 -40
-15 -103 -27 -125 -24 -23 4 -22 5 6 12 169 43 173 39 -195 188 -303 123 -320
129 -314 115z"/>
<path d="M4342 4463 c2 -5 20 -39 40 -78 20 -38 51 -99 70 -134 32 -62 35 -65
83 -77 50 -12 50 -12 13 -13 -21 0 -38 -5 -38 -9 0 -10 126 -260 139 -276 5
-6 46 -84 91 -173 50 -99 88 -163 97 -163 8 0 12 4 9 9 -4 5 -2 11 3 13 10 4
71 196 71 225 0 10 4 23 9 29 10 10 14 34 12 76 -1 31 -46 85 -123 150 -40 33
-52 39 -59 27 -7 -11 -9 -9 -9 8 0 37 -11 53 -39 54 -25 1 -25 1 -3 8 23 6 22
8 -24 46 -26 22 -111 95 -188 163 -124 108 -165 139 -154 115z"/>
<path d="M5073 4074 c-17 -42 -27 -105 -25 -139 2 -21 17 -44 54 -77 28 -27
57 -48 64 -48 8 0 14 -6 14 -13 0 -7 26 -38 58 -70 l57 -57 35 19 c19 11 34
24 33 29 -4 20 -161 275 -176 287 -7 6 -22 28 -32 50 -20 39 -20 40 -23 12 -2
-15 4 -71 13 -123 17 -102 14 -141 -4 -52 -25 118 -34 154 -45 182 l-12 29
-11 -29z"/>
<path d="M4951 3718 c-24 -79 -45 -152 -47 -163 -1 -11 -3 -22 -4 -25 -1 -3
-2 -9 -1 -14 1 -5 -4 -13 -11 -17 -11 -7 -11 -9 0 -9 14 0 171 59 187 71 6 4
43 24 83 44 65 32 72 38 60 53 -7 9 -17 20 -23 24 -5 4 -48 45 -96 92 -47 47
-90 86 -95 86 -5 0 -29 -64 -53 -142z"/>
<path d="M5540 3688 c-49 -30 -49 -34 7 -131 29 -50 89 -137 94 -137 24 0 69
144 69 220 0 35 -20 48 -91 59 -39 6 -55 4 -79 -11z"/>
<path d="M3751 3679 c-35 -4 -69 -5 -74 -2 -5 3 -8 0 -5 -7 4 -13 180 -110
225 -124 20 -6 21 -4 16 36 -3 24 -12 58 -19 76 -15 36 -22 37 -143 21z"/>
<path d="M3920 3658 c0 -17 18 -86 32 -120 12 -31 105 -90 259 -163 106 -49
308 -120 317 -110 4 3 2 9 -4 13 -354 236 -592 392 -599 392 -3 0 -5 -6 -5
-12z"/>
<path d="M3554 3643 c-22 -8 -59 -21 -84 -30 -63 -23 -84 -38 -68 -50 7 -5 79
-31 159 -57 129 -42 151 -47 180 -38 19 6 62 16 97 23 34 6 62 15 62 18 0 4
-30 25 -67 46 -167 95 -217 111 -279 88z"/>
<path d="M5222 3603 c-31 -13 -38 -38 -7 -26 8 3 15 1 15 -5 0 -6 3 -17 6 -26
9 -22 -12 -20 -36 4 -28 28 -41 26 -128 -19 -43 -22 -89 -43 -104 -46 -15 -4
-32 -13 -38 -20 -9 -11 -2 -15 37 -20 26 -3 82 -15 124 -26 97 -24 113 -24
141 4 13 13 32 30 42 38 18 12 19 12 11 -1 -4 -8 -17 -25 -28 -38 -29 -32 -14
-41 68 -43 39 -1 76 -6 82 -11 11 -9 32 -8 111 4 6 1 12 4 12 6 0 9 -153 152
-162 152 -5 0 -20 12 -33 28 -12 15 -36 34 -51 43 -25 14 -33 15 -62 2z"/>
<path d="M3835 3475 c-33 -7 -71 -18 -85 -23 -24 -9 -24 -10 -5 -17 11 -4 53
-23 94 -41 40 -19 85 -37 99 -41 25 -6 25 -5 19 39 -9 65 -24 98 -44 97 -10 0
-45 -7 -78 -14z"/>
<path d="M3971 3428 c10 -54 19 -78 29 -78 5 0 21 -5 35 -10 21 -8 25 -13 16
-24 -16 -19 -13 -20 187 -121 186 -93 205 -97 252 -53 18 17 20 23 8 34 -23
22 -315 164 -340 165 -21 0 -21 1 -4 8 16 6 4 18 -72 64 -113 70 -122 71 -111
15z"/>
<path d="M4813 3315 c-7 -8 -13 -18 -13 -23 0 -5 -9 -29 -19 -53 -36 -84 -36
-86 8 -109 48 -24 67 -25 75 -4 10 25 7 96 -6 139 -6 22 -12 44 -12 49 -1 16
-20 16 -33 1z"/>
<path d="M3200 3311 c-92 -19 -72 -43 33 -40 157 5 257 -29 376 -129 76 -64
83 -72 76 -90 -3 -7 2 -26 10 -43 9 -16 21 -54 28 -86 7 -31 19 -59 26 -61 11
-4 12 11 6 74 -14 155 -88 256 -242 331 -89 43 -101 46 -186 49 -51 2 -108 0
-127 -5z"/>
<path d="M3850 3300 c0 -17 33 -94 47 -111 7 -8 13 -25 13 -36 0 -21 75 -219
90 -238 4 -5 15 -35 24 -65 9 -30 29 -82 44 -115 26 -54 30 -58 39 -40 9 16 3
40 -28 120 -22 55 -47 120 -56 145 -8 25 -23 63 -33 85 -79 178 -92 215 -81
229 10 12 8 17 -8 25 -25 14 -51 14 -51 1z"/>
<path d="M3030 3246 c-64 -46 -143 -136 -169 -191 -63 -134 -62 -315 1 -440
73 -142 190 -230 349 -262 69 -14 88 -14 135 -3 30 7 57 17 60 22 3 4 16 8 29
8 77 0 199 84 257 176 26 42 68 145 68 169 0 31 -32 0 -62 -59 -47 -94 -84
-143 -141 -185 -61 -46 -193 -94 -257 -94 -46 0 -151 22 -160 34 -3 3 -38 23
-77 44 -40 20 -73 42 -73 47 0 6 -13 26 -30 44 -41 47 -65 98 -81 169 -16 75
-13 206 7 265 29 85 120 187 209 233 52 27 57 32 35 35 -14 2 -29 8 -34 13
-14 13 -16 12 -66 -25z"/>
<path d="M3940 3259 c0 -10 59 -162 105 -269 13 -30 40 -98 60 -150 43 -108
50 -119 66 -103 9 9 4 33 -18 95 -79 213 -156 403 -174 425 -14 16 -39 17 -39
2z"/>
<path d="M4040 3259 c0 -27 95 -269 105 -269 3 0 29 11 59 25 30 14 58 25 63
25 4 0 35 13 68 29 l59 28 -172 86 c-95 48 -175 87 -177 87 -3 0 -5 -5 -5 -11z"/>
<path d="M3244 3232 c2 -4 -11 -6 -29 -4 -88 10 -229 -98 -287 -222 -31 -67
-33 -77 -32 -176 1 -84 6 -115 23 -155 70 -160 218 -256 370 -240 36 4 76 14
90 23 l26 16 -20 -23 -20 -24 25 8 c58 18 148 64 182 94 33 29 87 107 93 135
1 6 7 25 14 41 7 17 15 63 18 103 5 66 4 75 -17 97 -34 36 -44 31 -37 -17 8
-57 -7 -169 -27 -209 -20 -40 -20 -43 0 -35 14 5 15 4 4 -9 -7 -8 -17 -12 -22
-9 -5 3 -12 -2 -15 -12 -7 -27 -93 -95 -139 -112 -22 -7 -78 -18 -125 -24 -84
-10 -87 -9 -140 17 -76 38 -129 84 -175 150 l-39 57 0 122 c0 134 13 178 75
256 36 46 130 95 207 110 125 23 300 -65 358 -181 28 -55 78 -100 83 -75 4 19
-31 99 -63 146 -33 48 -113 107 -177 132 -53 20 -214 36 -204 20z"/>
<path d="M3191 3149 c-43 -13 -109 -55 -139 -88 -74 -83 -97 -217 -60 -343 15
-53 100 -140 177 -182 46 -25 65 -29 132 -29 65 0 88 5 133 27 64 31 130 99
158 164 44 99 29 256 -28 298 -58 42 -140 106 -149 116 -17 19 16 -2 78 -49
33 -25 62 -42 65 -39 9 10 -75 84 -115 102 -21 10 -41 19 -45 21 -4 2 -5 -3
-2 -12 6 -13 1 -13 -27 4 -37 23 -117 27 -178 10z"/>
<path d="M4710 3099 c-9 -16 -39 -105 -40 -116 0 -2 11 -10 25 -19 25 -16 27
-16 55 11 32 30 42 25 13 -7 -18 -20 -17 -23 13 -32 15 -5 31 1 53 20 41 34
53 58 45 89 l-6 25 -41 -33 -42 -32 29 37 28 38 -43 20 c-56 25 -76 25 -89 -1z"/>
<path d="M4365 3066 c-22 -7 -69 -26 -106 -43 -36 -17 -75 -34 -87 -37 -12 -4
-22 -13 -22 -19 1 -30 66 -172 81 -175 13 -2 66 38 168 131 28 25 60 92 61
123 0 14 -8 24 -22 28 -27 7 -22 7 -73 -8z"/>
<path d="M4317 2827 c-44 -35 -77 -68 -77 -79 0 -9 8 -39 18 -65 11 -26 22
-57 26 -68 7 -19 8 -19 17 -3 6 10 16 37 24 60 7 24 27 81 44 127 17 47 30 86
28 87 -1 1 -37 -25 -80 -59z"/>
<path d="M5025 2882 c-3 -3 -5 -11 -5 -19 0 -11 40 -14 218 -13 119 0 223 1
230 0 6 0 12 -7 12 -15 0 -8 -6 -15 -12 -15 -7 0 -108 -1 -225 -2 -194 -3
-237 -7 -220 -24 8 -8 446 -24 475 -17 19 4 22 12 22 54 l0 49 -97 1 c-54 1
-164 3 -245 4 -81 1 -150 0 -153 -3z"/>
<path d="M4800 2861 c-14 -5 -52 -16 -85 -26 -89 -25 -126 -53 -158 -119 -16
-32 -27 -62 -25 -68 2 -5 28 8 58 30 30 22 79 58 108 79 68 48 146 113 135
112 -4 0 -19 -4 -33 -8z"/>
<path d="M4774 2771 c-32 -21 -76 -56 -97 -76 -22 -22 -35 -30 -30 -19 8 22
10 23 -88 -55 -51 -40 -71 -64 -85 -99 -13 -34 -14 -47 -5 -50 9 -3 7 -7 -4
-16 -17 -13 -59 -116 -47 -116 31 0 105 36 128 63 16 18 58 66 94 107 36 41
67 77 70 80 10 9 119 185 125 203 10 24 6 22 -61 -22z"/>
<path d="M4936 2743 c-3 -32 -7 -134 -8 -228 l-3 -170 336 -3 c377 -3 363 -6
357 70 l-3 43 -275 2 c-151 1 -280 2 -286 3 -8 0 -10 34 -7 113 5 114 -3 177
-25 185 -9 3 -12 -38 -12 -167 l0 -171 63 -1 c34 -1 159 -2 277 -3 177 -1 215
-3 215 -15 0 -12 -48 -14 -289 -12 -158 0 -292 4 -297 7 -5 3 -9 44 -9 92 0
130 -12 312 -21 312 -4 0 -10 -26 -13 -57z"/>
<path d="M4065 2395 c-33 -19 -79 -45 -102 -57 -24 -12 -43 -26 -43 -30 0 -10
267 -11 273 0 8 13 -39 117 -54 119 -8 2 -41 -13 -74 -32z"/>
<path d="M3815 2259 c-33 -16 -64 -30 -70 -32 -19 -8 2 -18 134 -63 85 -30
141 -44 156 -40 22 6 139 139 133 151 -2 2 -68 6 -148 8 -142 4 -146 4 -205
-24z"/>
</g>
</svg>
